<?xml version="1.0" standalone="no"?>
<!DOCTYPE svg PUBLIC "-//W3C//DTD SVG 20010904//EN"
 "http://www.w3.org/TR/2001/REC-SVG-20010904/DTD/svg10.dtd">
<svg version="1.0" xmlns="http://www.w3.org/2000/svg"
 width="512.000000pt" height="512.000000pt" viewBox="0 0 512.000000 512.000000"
 preserveAspectRatio="xMidYMid meet">

<g transform="translate(0.000000,512.000000) scale(0.100000,-0.100000)"
fill="#000000" stroke="none">
<path d="M2445 5029 c-79 -16 -204 -82 -263 -139 l-54 -51 -46 16 c-182 62
-412 3 -556 -141 -137 -136 -192 -331 -151 -529 6 -27 2 -34 -40 -65 -36 -27
-85 -82 -132 -149 -2 -3 -18 9 -36 27 -54 53 -120 77 -212 77 -65 0 -89 -5
-130 -24 -65 -33 -126 -95 -155 -158 l-23 -51 -58 -6 c-78 -9 -185 -64 -239
-122 -23 -25 -56 -75 -73 -112 -27 -57 -32 -80 -33 -152 l-2 -85 -47 -49 c-26
-27 -61 -79 -79 -115 -28 -60 -31 -75 -31 -162 0 -90 2 -99 37 -171 45 -91
103 -147 196 -191 62 -30 74 -32 162 -30 52 1 109 3 125 5 l30 3 3 -326 2
-326 -56 -7 c-56 -6 -57 -6 -104 38 -79 74 -206 126 -308 126 -32 0 -49 -6
-67 -25 l-25 -24 0 -991 0 -991 25 -24 24 -25 2431 0 2431 0 24 25 25 24 0
991 0 991 -25 24 c-18 19 -35 25 -67 25 -102 0 -229 -52 -308 -126 -47 -44
-48 -44 -104 -38 l-56 7 2 326 3 326 30 -3 c17 -2 73 -4 126 -5 92 -2 98 -1
171 35 248 123 303 437 112 636 l-46 47 -2 85 c-1 72 -6 95 -33 152 -17 37
-50 87 -73 112 -54 58 -161 113 -239 122 l-58 6 -23 51 c-29 63 -90 125 -155
157 -73 36 -189 35 -265 -1 -30 -15 -68 -39 -83 -54 -16 -15 -29 -25 -31 -24
-34 53 -88 114 -127 145 -45 35 -50 42 -44 69 41 200 -14 393 -151 529 -143
144 -374 203 -555 141 l-47 -16 -47 46 c-96 93 -220 145 -360 150 -49 2 -112
0 -140 -6z m236 -175 c69 -22 129 -64 188 -132 29 -33 63 -63 76 -66 15 -4 52
6 100 25 223 89 450 -15 531 -245 23 -62 20 -180 -5 -246 -35 -93 -26 -118 61
-168 182 -102 251 -329 159 -517 -29 -58 -48 -79 -165 -181 -35 -30 -35 -30
-35 -115 0 -166 -82 -299 -229 -367 -50 -24 -69 -27 -162 -27 -93 0 -111 3
-163 27 -32 15 -85 53 -118 85 -72 68 -105 74 -164 29 -114 -87 -278 -87 -393
0 -58 45 -90 39 -161 -29 -33 -32 -86 -70 -118 -85 -52 -24 -70 -27 -163 -27
-93 0 -112 3 -162 27 -147 68 -229 201 -229 367 0 85 0 85 -35 115 -117 102
-136 123 -165 181 -93 188 -23 415 159 517 87 50 96 75 61 168 -14 38 -21 77
-20 130 0 108 31 188 104 267 77 83 171 124 289 124 62 0 91 -5 153 -30 46
-19 86 -29 99 -25 13 3 51 36 85 74 116 130 264 173 422 124z m-121 -2134 c31
0 79 6 107 13 l52 14 3 -736 4 -736 26 -100 c15 -55 48 -161 73 -235 26 -74
51 -164 56 -199 5 -35 20 -90 33 -122 l24 -59 -378 0 -378 0 24 59 c13 32 28
87 33 122 5 35 30 125 56 199 25 74 58 180 73 235 l26 100 4 736 3 736 52 -14
c28 -7 76 -13 107 -13z m-331 -1380 c-9 -81 -52 -256 -64 -269 -3 -2 -23 16
-44 40 l-40 44 -1 756 0 756 38 11 c20 7 55 23 77 36 l40 25 3 -652 c2 -448
-1 -682 -9 -747z m797 1330 c12 0 14 -108 14 -757 l-1 -758 -40 -44 c-21 -24
-41 -42 -43 -40 -2 2 -14 36 -25 74 -47 152 -51 216 -51 927 l0 667 66 -35
c36 -19 72 -34 80 -34z m-1426 -486 c0 -459 -1 -486 -17 -479 -108 45 -121 48
-210 49 l-93 1 0 447 c0 246 4 449 9 452 5 3 44 0 87 -6 66 -9 89 -9 139 4 33
8 66 16 73 17 9 1 12 -102 12 -485z m2019 464 c40 -8 72 -8 128 0 41 7 79 10
84 6 5 -3 9 -196 9 -452 l0 -447 -93 -1 c-89 -1 -102 -4 -209 -49 -17 -7 -18
20 -18 480 l0 487 23 -6 c12 -4 46 -12 76 -18z m-3304 -697 c28 -16 73 -55
100 -86 47 -56 49 -57 89 -51 23 4 78 9 123 12 73 5 88 3 135 -19 75 -34 122
-78 158 -149 27 -56 30 -70 30 -158 0 -119 12 -136 106 -146 119 -12 213 -74
264 -176 26 -52 30 -72 30 -137 0 -89 -23 -146 -89 -225 -56 -66 -55 -93 5
-154 25 -26 52 -59 60 -74 l15 -28 -551 0 -550 0 0 710 c0 561 3 710 13 710 6
0 35 -13 62 -29z m4565 -681 l0 -710 -550 0 -551 0 12 23 c6 12 34 45 60 74
63 67 64 94 7 160 -94 109 -116 233 -62 353 49 109 139 171 274 185 87 10 100
28 99 141 -1 78 2 100 23 146 35 76 80 123 153 159 60 29 68 31 147 25 46 -3
101 -8 124 -12 40 -6 42 -5 89 51 45 53 133 115 163 115 9 0 12 -149 12 -710z"/>
</g>
</svg>
