<?xml version="1.0" standalone="no"?>
<!DOCTYPE svg PUBLIC "-//W3C//DTD SVG 20010904//EN"
 "http://www.w3.org/TR/2001/REC-SVG-20010904/DTD/svg10.dtd">
<svg version="1.0" xmlns="http://www.w3.org/2000/svg"
 width="512.000000pt" height="512.000000pt" viewBox="0 0 512.000000 512.000000"
 preserveAspectRatio="xMidYMid meet">

<g transform="translate(0.000000,512.000000) scale(0.100000,-0.100000)"
fill="#000000" stroke="none">
<path d="M2835 5111 c-63 -9 -103 -30 -143 -75 -41 -47 -47 -82 -46 -271 3
-488 138 -867 393 -1107 224 -210 542 -321 958 -335 l171 -6 45 -96 c65 -140
115 -284 117 -334 0 -20 -128 30 -216 85 -84 53 -219 114 -290 133 -285 75
-581 19 -809 -152 -38 -29 -72 -53 -75 -53 -3 0 -15 29 -28 64 -26 71 -44 93
-88 102 -44 9 -94 -35 -94 -82 0 -38 10 -38 -110 -9 -294 72 -734 104 -995 75
-295 -34 -562 -129 -765 -271 -471 -331 -761 -1093 -764 -2009 l-1 -255 32
-65 c36 -73 94 -138 162 -182 83 -52 426 -151 701 -202 871 -160 1506 -18
1889 425 223 258 376 604 466 1054 28 141 65 398 65 454 0 11 6 9 23 -7 43
-40 100 -37 134 7 52 68 -55 198 -231 282 l-79 37 64 33 c74 37 180 50 243 29
21 -7 87 -46 148 -87 188 -128 333 -185 519 -202 238 -23 436 45 594 204 264
264 278 657 36 984 -86 115 -217 228 -337 289 l-41 21 -6 148 c-23 518 -183
893 -476 1113 -147 111 -369 199 -601 240 -133 23 -466 36 -565 21z m365 -171
c227 -20 406 -67 564 -148 247 -127 397 -327 481 -644 28 -104 55 -277 55
-352 l0 -49 -69 104 c-132 200 -346 422 -573 594 -105 79 -271 185 -354 226
-58 29 -63 30 -96 16 -42 -18 -64 -63 -51 -104 10 -29 27 -42 191 -141 281
-171 563 -433 725 -674 63 -94 147 -246 147 -267 0 -12 -30 -13 -182 -8 -524
17 -863 180 -1042 500 -116 207 -180 501 -174 798 l3 144 45 6 c74 10 208 9
330 -1z m1272 -1627 c145 -154 222 -335 222 -523 0 -109 -26 -211 -76 -298
-36 -63 -121 -158 -178 -197 -39 -27 -46 -28 -143 -27 -178 1 -302 47 -507
187 -126 86 -204 115 -304 115 -121 0 -222 -39 -374 -141 -56 -38 -81 -49
-112 -49 -21 0 -41 4 -45 9 -3 5 0 31 6 58 6 26 14 95 18 153 l6 105 84 67
c101 81 209 139 317 170 105 30 287 32 384 3 85 -25 159 -58 226 -100 131 -84
248 -128 339 -129 112 -1 156 43 163 165 4 69 1 87 -38 200 -23 68 -55 153
-71 189 l-30 64 23 18 c13 10 26 18 29 18 3 0 31 -26 61 -57z m-2525 -615 c33
-31 32 -91 -2 -122 -22 -20 -38 -24 -147 -29 -539 -28 -825 -233 -1015 -731
-105 -276 -183 -754 -183 -1124 0 -85 -2 -95 -24 -117 -51 -51 -124 -36 -146
29 -13 40 1 363 24 561 87 735 336 1219 731 1418 138 69 346 122 539 137 143
11 194 6 223 -22z"/>
</g>
</svg>
