<?xml version="1.0" standalone="no"?>
<!DOCTYPE svg PUBLIC "-//W3C//DTD SVG 20010904//EN"
 "http://www.w3.org/TR/2001/REC-SVG-20010904/DTD/svg10.dtd">
<svg version="1.0" xmlns="http://www.w3.org/2000/svg"
 width="512.000000pt" height="512.000000pt" viewBox="0 0 512.000000 512.000000"
 preserveAspectRatio="xMidYMid meet">

<g transform="translate(0.000000,512.000000) scale(0.100000,-0.100000)"
fill="#000000" stroke="none">
<path d="M2443 5109 c-253 -33 -498 -211 -618 -449 -15 -30 -29 -56 -30 -58
-1 -1 -35 6 -74 17 -278 77 -578 -4 -787 -213 -214 -214 -294 -519 -211 -804
l24 -83 -66 -43 c-145 -94 -258 -223 -331 -379 -63 -134 -83 -228 -84 -387 0
-146 13 -218 61 -339 116 -291 398 -516 701 -560 43 -6 49 -10 72 -52 80 -146
195 -242 365 -307 163 -63 407 -53 572 23 l52 23 19 -32 c11 -18 31 -62 46
-98 33 -83 34 -170 6 -348 -25 -160 -25 -156 11 -192 l30 -31 -16 -68 c-15
-59 -20 -69 -39 -69 -41 0 -64 -28 -92 -112 -47 -144 -102 -247 -219 -412 -41
-57 -43 -79 -10 -111 l24 -25 711 0 711 0 24 25 c33 32 31 54 -10 111 -122
171 -185 290 -234 443 -96 295 -144 716 -98 846 10 28 24 59 32 69 14 19 16
18 82 -12 99 -45 174 -63 292 -69 290 -15 532 112 661 346 23 42 29 46 72 52
303 44 585 269 701 560 48 121 61 193 61 339 -1 159 -21 253 -84 387 -73 156
-186 285 -331 379 l-66 43 24 83 c16 54 26 119 29 188 6 121 -3 150 -54 165
-19 5 -32 16 -32 26 0 9 -9 42 -20 74 l-20 59 20 21 c29 31 25 62 -18 130
-112 176 -286 302 -491 357 -112 30 -299 30 -405 0 -43 -13 -80 -21 -81 -20
-1 2 -15 28 -30 58 -46 92 -100 164 -176 234 -187 173 -423 248 -676 215z
m127 -679 c252 -74 428 -378 335 -578 -149 -319 -1129 -1206 -1523 -1378 -86
-38 -126 -41 -220 -19 -233 55 -402 267 -402 503 1 229 161 438 381 496 30 8
53 18 52 23 -1 4 -14 37 -29 73 -35 85 -43 208 -21 297 47 180 178 320 357
379 113 37 283 17 396 -46 l51 -29 10 22 c29 62 105 147 169 189 84 55 139 76
224 86 83 10 139 5 220 -18z"/>
</g>
</svg>
